# Blender 5.2.1 LTS
# www.blender.org
mtllib lift.mtl
o Cube.001
v -3.705434 0.011936 0.692893
v -3.705434 11.464182 0.692890
v -3.705434 0.011936 -0.225789
v -3.705434 11.464182 -0.225792
v 3.663237 0.011936 0.692893
v 3.663237 11.464182 0.692890
v 3.663237 0.011936 -0.225789
v 3.663237 11.464182 -0.225792
v -0.048824 11.464182 -0.225792
v -0.048824 0.011936 -0.225789
v -0.048824 11.464182 0.692890
v -0.048824 0.011936 0.692893
v 0.048825 11.464182 -0.225792
v 0.048825 0.011936 -0.225789
v 0.048825 11.464182 0.692890
v 0.048825 0.011936 0.692893
vn -1.0000 -0.0000 -0.0000
vn -0.0000 -0.0000 -1.0000
vn -0.0000 -0.0000 1.0000
vn -0.0000 -1.0000 -0.0000
vn -0.0000 1.0000 -0.0000
vn 1.0000 -0.0000 -0.0000
vt 0.375000 0.000000
vt 0.625000 0.000000
vt 0.625000 0.250000
vt 0.375000 0.250000
vt 0.625000 0.498176
vt 0.375000 0.498176
vt 0.625000 1.000000
vt 0.375000 1.000000
vt 0.375000 0.751824
vt 0.625000 0.751824
vt 0.373176 0.750000
vt 0.125000 0.750000
vt 0.125000 0.500000
vt 0.373176 0.500000
vt 0.626824 0.500000
vt 0.875000 0.500000
vt 0.875000 0.750000
vt 0.626824 0.750000
vt 0.625000 0.254688
vt 0.625000 0.500000
vt 0.375000 0.500000
vt 0.375000 0.254688
vt 0.625000 0.750000
vt 0.375000 0.750000
vt 0.625000 0.995312
vt 0.375000 0.995312
vt 0.129688 0.750000
vt 0.129688 0.500000
vt 0.870312 0.500000
vt 0.870312 0.750000
vt 0.408355 0.153224
vt 0.602792 0.153224
vt 0.602792 0.038389
vt 0.408355 0.038388
vt 0.602792 0.596776
vt 0.408355 0.596776
vt 0.408355 0.711612
vt 0.602792 0.711611
s 1
usemtl Material.013
f 1/1/1 2/2/1 4/3/1 3/4/1
f 3/4/2 4/3/2 9/5/2 10/6/2
f 2/7/3 1/8/3 12/9/3 11/10/3
f 12/11/4 1/12/4 3/13/4 10/14/4
f 9/15/5 4/16/5 2/17/5 11/18/5
f 13/19/2 8/20/2 7/21/2 14/22/2
f 7/21/6 8/20/6 6/23/6 5/24/6
f 5/24/3 6/23/3 15/25/3 16/26/3
f 7/21/4 5/24/4 16/27/4 14/28/4
f 6/23/5 8/20/5 13/29/5 15/30/5
f 10/31/6 9/32/6 11/33/6 12/34/6
f 13/35/1 14/36/1 16/37/1 15/38/1
o Cube.002
v -0.848059 12.330677 2.245283
v -0.848059 13.232040 2.245283
v -1.000000 12.249931 1.981838
v -1.000000 13.312786 1.981838
v 0.848059 12.330677 2.245283
v 0.848059 13.232040 2.245283
v 1.000000 12.249931 1.981838
v 1.000000 13.312786 1.981838
v -1.000000 12.249931 2.245283
v -1.000000 13.312786 2.245283
v 1.000000 13.312786 2.245283
v 1.000000 12.249931 2.245283
v -0.848059 12.330677 2.196102
v -0.848059 13.232040 2.196102
v 0.848059 13.232040 2.196102
v 0.848059 12.330677 2.196102
v -5.512512 0.009207 2.171142
v -5.512512 14.029557 2.171138
v -5.512512 0.009207 -2.171139
v -5.512512 14.029556 -2.171143
v -3.663630 11.416870 0.023989
v 5.434075 0.009207 2.171142
v 5.434075 14.029557 2.171138
v 5.434075 0.009207 -2.171139
v 5.434075 14.029556 -2.171143
v 3.584935 11.416870 0.023989
v 3.584935 11.416870 2.171138
v -3.663630 0.009207 2.171142
v 3.584935 0.009207 2.171142
v -3.663630 11.416870 2.171138
v 3.584935 0.009207 0.023992
v -3.663630 0.009207 0.023992
vn -0.0000 -0.0000 1.0000
vn -1.0000 -0.0000 -0.0000
vn -0.0000 -0.0000 -1.0000
vn 1.0000 -0.0000 -0.0000
vn -0.0000 1.0000 -0.0000
vn -0.0000 -1.0000 -0.0000
vt 0.393993 0.768993
vt 0.606007 0.768993
vt 0.606007 0.981007
vt 0.393993 0.981007
vt 0.375000 0.000000
vt 0.625000 0.000000
vt 0.625000 0.250000
vt 0.375000 0.250000
vt 0.625000 0.500000
vt 0.375000 0.500000
vt 0.625000 0.750000
vt 0.375000 0.750000
vt 0.125000 0.500000
vt 0.125000 0.750000
vt 0.875000 0.500000
vt 0.875000 0.750000
vt 0.625000 1.000000
vt 0.375000 1.000000
vt 0.375000 0.784717
vt 0.375000 0.967265
vt 0.578413 0.967265
vt 0.578413 0.784717
vt 0.157735 0.750000
vt 0.340283 0.750000
vt 0.340283 0.626381
vt 0.157735 0.626381
vt 0.390776 0.250000
vt 0.625000 0.080704
vt 0.390776 0.080704
vt 0.390776 0.500000
vt 0.625000 0.669296
vt 0.390776 0.669296
vt 0.875000 0.669296
s 1
usemtl Material.002
f 32/39/7 31/40/7 30/41/7 29/42/7
usemtl Material.003
f 25/43/8 26/44/8 20/45/8 19/46/8
f 19/46/9 20/45/9 24/47/9 23/48/9
f 23/48/10 24/47/10 27/49/10 28/50/10
f 17/42/11 21/39/11 32/39/11 29/42/11
f 19/51/12 23/48/12 28/50/12 25/52/12
f 24/47/11 20/53/11 26/54/11 27/49/11
f 17/42/7 18/41/7 26/55/7 25/56/7
f 22/40/7 21/39/7 28/50/7 27/49/7
f 21/39/7 17/42/7 25/56/7 28/50/7
f 18/41/7 22/40/7 27/49/7 26/55/7
f 18/41/10 17/42/10 29/42/10 30/41/10
f 22/40/12 18/41/12 30/41/12 31/40/12
f 21/39/8 22/40/8 31/40/8 32/39/8
usemtl Material.001
f 33/56/8 34/55/8 36/53/8 35/46/8
f 35/46/9 36/45/9 41/47/9 40/48/9
f 40/48/10 41/47/10 39/49/10 38/50/10
f 45/57/7 38/50/7 39/49/7 34/55/7 33/56/7 44/58/7 46/59/7 43/60/7
f 44/61/12 33/52/12 35/51/12 40/48/12 38/50/12 45/62/12 47/63/12 48/64/12
f 41/47/11 36/53/11 34/54/11 39/49/11
f 48/65/10 37/45/10 46/66/10 44/67/10
f 47/68/7 42/47/7 37/45/7 48/65/7
f 43/69/8 42/47/8 47/68/8 45/70/8
f 37/53/12 42/47/12 43/69/12 46/71/12
