# Blender 5.2.1 LTS
# www.blender.org
mtllib DESKTOP.mtl
o Cube
v 1.497066 0.826188 -1.643751
v 1.497066 -0.826188 -1.643751
v 1.497066 0.826188 -1.758293
v 1.497066 -0.826188 -1.758293
v -0.405811 0.826188 -1.643751
v -0.405811 -0.826188 -1.643751
v -0.405811 0.826188 -1.758293
v -0.405811 -0.826188 -1.758293
v 1.496088 0.887063 1.917598
v -0.503912 0.820616 1.917598
v 1.496088 0.820616 1.917598
v -0.503912 0.887063 1.917598
v 1.496088 0.887063 -1.919147
v -0.503912 0.820616 -1.919147
v 1.496088 0.820616 -1.919147
v -0.503912 0.887063 -1.919147
v -0.405811 -0.826188 1.657090
v -0.405811 0.826188 1.657090
v -0.405811 -0.826188 1.771632
v -0.405811 0.826188 1.771632
v 1.497066 -0.826188 1.657090
v 1.497066 0.826188 1.657090
v 1.497066 -0.826188 1.771632
v 1.497066 0.826188 1.771632
v 1.437471 0.822370 -1.641188
v 1.437471 -0.520971 -1.641188
v 1.274380 0.822370 -1.641188
v 1.274380 -0.520971 -1.641188
v 1.437471 0.822370 1.653778
v 1.437471 -0.520971 1.653778
v 1.274380 0.822370 1.653778
v 1.274380 -0.520971 1.653778
vn -0.0000 1.0000 -0.0000
vn -0.0000 -0.0000 -1.0000
vn -1.0000 -0.0000 -0.0000
vn -0.0000 -1.0000 -0.0000
vn 1.0000 -0.0000 -0.0000
vn -0.0000 -0.0000 1.0000
vt 0.625000 0.500000
vt 0.625000 0.750000
vt 0.875000 0.750000
vt 0.875000 0.500000
vt 0.375000 0.750000
vt 0.375000 1.000000
vt 0.625000 1.000000
vt 0.375000 0.000000
vt 0.375000 0.250000
vt 0.625000 0.250000
vt 0.625000 0.000000
vt 0.125000 0.500000
vt 0.125000 0.750000
vt 0.375000 0.500000
s 1
usemtl Material.005
f 1/1/1 3/2/1 7/3/1 5/4/1
f 4/5/2 8/6/2 7/7/2 3/2/2
f 8/8/3 6/9/3 5/10/3 7/11/3
f 6/12/4 8/13/4 4/5/4 2/14/4
f 2/14/5 4/5/5 3/2/5 1/1/5
f 6/9/6 2/14/6 1/1/6 5/10/6
f 19/9/6 23/14/6 24/1/6 20/10/6
f 17/8/3 19/9/3 20/10/3 18/11/3
f 21/5/2 17/6/2 18/7/2 22/2/2
f 23/14/5 21/5/5 22/2/5 24/1/5
f 24/1/1 22/2/1 18/11/1 20/10/1
f 25/1/1 27/2/1 31/3/1 29/4/1
f 28/5/3 32/6/3 31/7/3 27/2/3
f 30/12/4 32/13/4 28/5/4 26/14/4
f 30/9/5 26/14/5 25/1/5 29/10/5
usemtl Material.006
f 12/8/3 16/9/3 14/10/3 10/11/3
f 16/9/2 13/14/2 15/1/2 14/10/2
f 13/14/5 9/5/5 11/2/5 15/1/5
f 9/5/6 12/6/6 10/7/6 11/2/6
f 16/12/1 12/13/1 9/5/1 13/14/1
f 15/1/4 11/2/4 10/3/4 14/4/4
