# Blender 5.2.1 LTS
# www.blender.org
mtllib doorlrft.mtl
o Cube.007
v -1.757602 0.250314 -0.055283
v -1.757603 3.757205 -0.055282
v -1.757602 0.250314 0.055283
v -1.757603 3.757205 0.055283
v -0.226890 0.250314 -0.055283
v -0.226891 3.757206 -0.055282
v -0.226890 0.250314 0.055283
v -0.226891 3.757206 0.055283
v -2.003019 1.464533 0.125717
v -2.003019 1.164794 0.125717
v -2.003019 1.464533 -0.125717
v -2.003019 1.164794 -0.125717
v 0.007722 1.464533 0.125717
v 0.007722 1.164795 0.125717
v 0.007722 1.464533 -0.125717
v 0.007722 1.164795 -0.125717
v 0.005620 3.994577 -0.102722
v 0.005620 0.005210 -0.102722
v 0.005620 3.994577 0.102722
v 0.005620 0.005210 0.102722
v -0.255827 3.994577 -0.102722
v -0.255827 0.005210 -0.102722
v -0.255827 3.994577 0.102722
v -0.255827 0.005210 0.102722
v 0.005620 3.727166 -0.102722
v -0.255827 3.727166 0.102722
v 0.005620 3.727166 0.102722
v -0.255827 3.727166 -0.102722
v -1.982903 3.727166 0.102722
v -1.982903 3.994577 0.102722
v -1.982903 3.994577 -0.102722
v -1.982903 3.727166 -0.102722
v -1.982906 0.279362 0.102722
v -1.982906 0.279362 -0.102722
v -1.982906 0.005210 0.102722
v -1.982906 0.005210 -0.102722
v -1.720189 3.994577 -0.102722
v -1.720189 3.994577 0.102722
v -1.720189 3.727166 0.102722
v -1.720189 3.727166 -0.102722
v 0.005620 0.279362 -0.102722
v 0.005620 0.279362 0.102722
v -0.255827 0.279362 -0.102722
v -0.255827 0.279362 0.102722
v -1.982903 0.279339 0.102722
v -1.982903 0.279339 -0.102722
v -1.720189 0.279339 0.102722
v -1.720189 0.279339 -0.102722
v -1.720660 0.005210 -0.102722
v -1.720660 0.005210 0.102722
v -1.720660 0.279362 0.102722
v -1.720660 0.279362 -0.102722
v -0.255827 3.727166 0.132293
v -0.255827 3.994577 0.132293
v 0.005620 0.279362 0.132294
v 0.005620 0.005210 0.132294
v 0.005620 3.994577 0.132293
v -0.255827 0.005210 0.132294
v 0.005620 3.727166 0.132293
v -1.982903 3.727166 0.132293
v -1.982903 3.994577 0.132293
v -1.720189 3.994577 0.132293
v -1.720189 3.727166 0.132293
v -1.720660 0.005210 0.132294
v -1.720660 0.279362 0.132294
v -0.255827 0.279362 0.132294
v -1.982906 0.005210 0.132294
v -1.982906 0.279362 0.132294
v -1.888768 3.262677 0.125274
v -1.888768 3.515692 0.125274
v -1.888768 3.262677 0.084136
v -1.888768 3.515692 0.084136
v -1.811450 3.262677 0.125274
v -1.811450 3.515692 0.125274
v -1.811450 3.262677 0.084136
v -1.811450 3.515692 0.084136
vn -1.0000 -0.0000 -0.0000
vn -0.0000 -0.0000 1.0000
vn 1.0000 -0.0000 -0.0000
vn -0.0000 -0.0000 -1.0000
vn -0.0000 -1.0000 -0.0000
vn -0.0000 1.0000 -0.0000
vt 0.375000 0.000000
vt 0.625000 0.000000
vt 0.625000 0.250000
vt 0.375000 0.250000
vt 0.625000 0.500000
vt 0.375000 0.500000
vt 0.625000 0.750000
vt 0.375000 0.750000
vt 0.625000 1.000000
vt 0.375000 1.000000
vt 0.125000 0.500000
vt 0.125000 0.750000
vt 0.875000 0.500000
vt 0.875000 0.750000
vt 0.391604 0.000000
vt 0.875000 0.750000
vt 0.600418 0.500000
vt 0.600418 0.750000
vt 0.600418 0.250000
vt 0.391604 0.250000
vt 0.391604 0.500000
vt 0.391604 0.750000
vt 0.600418 0.000000
vt 0.600418 1.000000
vt 0.391604 1.000000
vt 0.625000 0.250000
vt 0.625000 1.000000
s 1
usemtl Material.009
f 1/1/1 3/4/1 4/3/1 2/2/1
f 3/4/2 7/6/2 8/5/2 4/3/2
f 7/6/3 5/8/3 6/7/3 8/5/3
f 5/8/4 1/10/4 2/9/4 6/7/4
f 3/11/5 1/12/5 5/8/5 7/6/5
f 8/5/6 6/7/6 2/14/6 4/13/6
usemtl Material.007
f 9/1/1 11/4/1 12/3/1 10/2/1
f 11/4/4 15/6/4 16/5/4 12/3/4
f 15/6/3 13/8/3 14/7/3 16/5/3
f 13/8/2 9/10/2 10/9/2 14/7/2
f 11/11/6 9/12/6 13/8/6 15/6/6
f 16/5/5 14/7/5 10/14/5 12/13/5
f 17/5/5 19/7/5 23/14/5 21/13/5
f 44/15/5 66/15/5 65/15/5 51/15/5
f 38/16/5 30/14/5 31/13/5 37/13/5
f 22/11/6 24/12/6 20/8/6 18/6/6
f 25/17/1 27/18/1 19/7/1 17/5/1
f 28/19/2 25/17/2 17/5/2 21/3/2
f 43/20/2 41/21/2 25/17/2 28/19/2
f 41/21/1 42/22/1 27/18/1 25/17/1
f 44/15/3 43/20/3 28/19/3 26/23/3
f 42/22/4 44/25/4 26/24/4 27/18/4
f 29/23/3 32/19/3 31/3/3 30/2/3
f 38/16/5 62/16/5 61/14/5 30/14/5
f 37/26/2 31/3/2 32/19/2 40/19/2
f 40/19/1 48/19/1 47/23/1 39/23/1
f 52/20/2 34/20/2 36/4/2 49/4/2
f 49/11/6 36/11/6 35/12/6 50/12/6
f 50/12/6 64/12/6 58/12/6 24/12/6
f 35/1/3 36/4/3 34/20/3 33/15/3
f 21/3/2 37/26/2 40/19/2 28/19/2
f 27/18/1 59/18/1 57/7/1 19/7/1
f 28/19/6 40/19/6 39/23/6 26/23/6
f 23/14/5 38/16/5 37/13/5 21/13/5
f 19/7/5 57/7/5 54/14/5 23/14/5
f 51/15/5 33/15/5 34/20/5 52/20/5
f 18/6/1 20/8/1 42/22/1 41/21/1
f 22/4/2 18/6/2 41/21/2 43/20/2
f 46/19/6 45/24/6 47/23/6 48/19/6
f 29/23/3 45/23/3 46/19/3 32/19/3
f 32/19/2 46/19/2 48/19/2 40/19/2
f 39/24/4 47/24/4 45/24/4 29/24/4
f 44/15/5 51/15/5 52/20/5 43/20/5
f 30/2/3 61/2/3 60/23/3 29/23/3
f 22/11/6 49/11/6 50/12/6 24/12/6
f 43/20/2 52/20/2 49/4/2 22/4/2
f 59/18/4 53/24/4 54/9/4 57/7/4
f 63/24/4 60/24/4 61/9/4 62/27/4
f 64/10/4 67/10/4 68/25/4 65/25/4
f 53/24/4 63/24/4 62/27/4 54/9/4
f 56/8/4 58/10/4 66/25/4 55/22/4
f 58/10/4 64/10/4 65/25/4 66/25/4
f 24/12/6 58/12/6 56/8/6 20/8/6
f 39/23/6 63/23/6 53/23/6 26/23/6
f 35/12/6 67/12/6 64/12/6 50/12/6
f 51/15/5 65/15/5 68/15/5 33/15/5
f 23/14/5 54/14/5 62/16/5 38/16/5
f 33/15/3 68/15/3 67/1/3 35/1/3
f 42/22/5 55/22/5 66/25/5 44/25/5
f 29/24/6 60/24/6 63/24/6 39/24/6
f 20/8/1 56/8/1 55/22/1 42/22/1
f 26/24/6 53/24/6 59/18/6 27/18/6
usemtl Material.008
f 69/1/3 71/4/3 72/3/3 70/2/3
f 71/4/2 75/6/2 76/5/2 72/3/2
f 75/6/1 73/8/1 74/7/1 76/5/1
f 73/8/4 69/10/4 70/9/4 74/7/4
f 71/11/6 69/12/6 73/8/6 75/6/6
f 76/5/5 74/7/5 70/14/5 72/13/5
