# Blender 5.2.1 LTS
# www.blender.org
mtllib lif.mtl
o Circle.002
v -4.623499 6.096036 2.250269
v -4.653154 6.093116 2.250269
v -4.681670 6.084466 2.250269
v -4.707950 6.070418 2.250269
v -4.730985 6.051515 2.250269
v -4.749889 6.028480 2.250269
v -4.763936 6.002199 2.250269
v -4.772586 5.973684 2.250269
v -4.775507 5.944028 2.250269
v -4.772586 5.914373 2.250269
v -4.763936 5.885858 2.250269
v -4.749889 5.859577 2.250269
v -4.730985 5.836542 2.250269
v -4.707950 5.817638 2.250269
v -4.681670 5.803591 2.250269
v -4.653154 5.794941 2.250269
v -4.623499 5.792020 2.250269
v -4.593843 5.794941 2.250269
v -4.565328 5.803591 2.250269
v -4.539048 5.817638 2.250269
v -4.516013 5.836542 2.250269
v -4.497108 5.859577 2.250269
v -4.483062 5.885858 2.250269
v -4.474411 5.914373 2.250269
v -4.471491 5.944028 2.250269
v -4.474411 5.973684 2.250269
v -4.483062 6.002199 2.250269
v -4.497108 6.028480 2.250269
v -4.516013 6.051515 2.250269
v -4.539048 6.070418 2.250269
v -4.565328 6.084466 2.250269
v -4.593843 6.093116 2.250269
v -4.653154 6.093116 2.272102
v -4.623499 6.096036 2.272102
v -4.681670 6.084466 2.272102
v -4.707950 6.070418 2.272102
v -4.730985 6.051515 2.272102
v -4.749889 6.028480 2.272102
v -4.763936 6.002199 2.272102
v -4.772586 5.973684 2.272102
v -4.775507 5.944028 2.272102
v -4.772586 5.914373 2.272102
v -4.763936 5.885858 2.272102
v -4.749889 5.859577 2.272102
v -4.730985 5.836542 2.272102
v -4.707950 5.817638 2.272102
v -4.681670 5.803591 2.272102
v -4.653154 5.794941 2.272102
v -4.623499 5.792020 2.272102
v -4.593843 5.794941 2.272102
v -4.565328 5.803591 2.272102
v -4.539048 5.817638 2.272102
v -4.516013 5.836542 2.272102
v -4.497108 5.859577 2.272102
v -4.483062 5.885858 2.272102
v -4.474411 5.914373 2.272102
v -4.471491 5.944028 2.272102
v -4.474411 5.973684 2.272102
v -4.483062 6.002199 2.272102
v -4.497108 6.028480 2.272102
v -4.516013 6.051515 2.272102
v -4.539048 6.070418 2.272102
v -4.565328 6.084466 2.272102
v -4.593843 6.093116 2.272102
vn -0.0000 -0.0000 -1.0000
vn -0.0000 -0.0000 1.0000
vn -0.8819 -0.4714 -0.0000
vn 0.9952 0.0980 -0.0000
vn -0.7730 -0.6344 -0.0000
vn 0.9569 0.2903 -0.0000
vn -0.6344 -0.7730 -0.0000
vn 0.8819 0.4714 -0.0000
vn -0.4714 -0.8819 -0.0000
vn -0.0980 0.9952 -0.0000
vn 0.7730 0.6344 -0.0000
vn -0.2903 -0.9569 -0.0000
vn -0.2903 0.9569 -0.0000
vn 0.6344 0.7730 -0.0000
vn -0.0980 -0.9952 -0.0000
vn -0.4714 0.8819 -0.0000
vn 0.4714 0.8819 -0.0000
vn 0.0980 -0.9952 -0.0000
vn -0.6344 0.7730 -0.0000
vn 0.2903 0.9569 -0.0000
vn 0.2903 -0.9569 -0.0000
vn -0.7730 0.6344 -0.0000
vn 0.0980 0.9952 -0.0000
vn 0.4714 -0.8819 -0.0000
vn -0.8819 0.4714 -0.0000
vn 0.6344 -0.7730 -0.0000
vn -0.9569 0.2903 -0.0000
vn 0.7730 -0.6344 -0.0000
vn -0.9952 0.0980 -0.0000
vn 0.8819 -0.4714 -0.0000
vn -0.9952 -0.0980 -0.0000
vn 0.9569 -0.2903 -0.0000
vn -0.9569 -0.2903 -0.0000
vn 0.9952 -0.0980 -0.0000
vt 0.000000 0.000000
s 1
usemtl Material.013
f 2/1/1 1/1/1 32/1/1 31/1/1 30/1/1 29/1/1 28/1/1 27/1/1 26/1/1 25/1/1 24/1/1 23/1/1 22/1/1 21/1/1 20/1/1 19/1/1 18/1/1 17/1/1 16/1/1 15/1/1 14/1/1 13/1/1 12/1/1 11/1/1 10/1/1 9/1/1 8/1/1 7/1/1 6/1/1 5/1/1 4/1/1 3/1/1
f 33/1/2 35/1/2 36/1/2 37/1/2 38/1/2 39/1/2 40/1/2 41/1/2 42/1/2 43/1/2 44/1/2 45/1/2 46/1/2 47/1/2 48/1/2 49/1/2 50/1/2 51/1/2 52/1/2 53/1/2 54/1/2 55/1/2 56/1/2 57/1/2 58/1/2 59/1/2 60/1/2 61/1/2 62/1/2 63/1/2 64/1/2 34/1/2
f 11/1/3 12/1/3 44/1/3 43/1/3
f 25/1/4 26/1/4 58/1/4 57/1/4
f 12/1/5 13/1/5 45/1/5 44/1/5
f 26/1/6 27/1/6 59/1/6 58/1/6
f 13/1/7 14/1/7 46/1/7 45/1/7
f 27/1/8 28/1/8 60/1/8 59/1/8
f 14/1/9 15/1/9 47/1/9 46/1/9
f 1/1/10 2/1/10 33/1/10 34/1/10
f 28/1/11 29/1/11 61/1/11 60/1/11
f 15/1/12 16/1/12 48/1/12 47/1/12
f 2/1/13 3/1/13 35/1/13 33/1/13
f 29/1/14 30/1/14 62/1/14 61/1/14
f 16/1/15 17/1/15 49/1/15 48/1/15
f 3/1/16 4/1/16 36/1/16 35/1/16
f 30/1/17 31/1/17 63/1/17 62/1/17
f 17/1/18 18/1/18 50/1/18 49/1/18
f 4/1/19 5/1/19 37/1/19 36/1/19
f 31/1/20 32/1/20 64/1/20 63/1/20
f 18/1/21 19/1/21 51/1/21 50/1/21
f 5/1/22 6/1/22 38/1/22 37/1/22
f 32/1/23 1/1/23 34/1/23 64/1/23
f 19/1/24 20/1/24 52/1/24 51/1/24
f 6/1/25 7/1/25 39/1/25 38/1/25
f 20/1/26 21/1/26 53/1/26 52/1/26
f 7/1/27 8/1/27 40/1/27 39/1/27
f 21/1/28 22/1/28 54/1/28 53/1/28
f 8/1/29 9/1/29 41/1/29 40/1/29
f 22/1/30 23/1/30 55/1/30 54/1/30
f 9/1/31 10/1/31 42/1/31 41/1/31
f 23/1/32 24/1/32 56/1/32 55/1/32
f 10/1/33 11/1/33 43/1/33 42/1/33
f 24/1/34 25/1/34 57/1/34 56/1/34
o Circle.001
v -4.623499 5.669529 2.229930
v -4.660103 5.665924 2.229930
v -4.695302 5.655247 2.229930
v -4.727740 5.637908 2.229930
v -4.756173 5.614574 2.229930
v -4.779507 5.586142 2.229930
v -4.796845 5.553703 2.229930
v -4.807523 5.518505 2.229930
v -4.811128 5.481901 2.229930
v -4.807523 5.445296 2.229930
v -4.796845 5.410098 2.229930
v -4.779507 5.377660 2.229930
v -4.756173 5.349227 2.229930
v -4.727740 5.325893 2.229930
v -4.695302 5.308554 2.229930
v -4.660103 5.297877 2.229930
v -4.623499 5.294272 2.229930
v -4.586895 5.297877 2.229930
v -4.551696 5.308554 2.229930
v -4.519258 5.325893 2.229930
v -4.490825 5.349227 2.229930
v -4.467491 5.377660 2.229930
v -4.450152 5.410098 2.229930
v -4.439475 5.445296 2.229930
v -4.435870 5.481901 2.229930
v -4.439475 5.518505 2.229930
v -4.450152 5.553703 2.229930
v -4.467491 5.586142 2.229930
v -4.490825 5.614574 2.229930
v -4.519258 5.637908 2.229930
v -4.551696 5.655247 2.229930
v -4.586895 5.665924 2.229930
v -4.660103 5.665924 2.256879
v -4.623499 5.669529 2.256879
v -4.695302 5.655247 2.256879
v -4.727740 5.637908 2.256879
v -4.756173 5.614574 2.256879
v -4.779507 5.586142 2.256879
v -4.796845 5.553703 2.256879
v -4.807523 5.518505 2.256879
v -4.811128 5.481901 2.256879
v -4.807523 5.445296 2.256879
v -4.796845 5.410098 2.256879
v -4.779507 5.377660 2.256879
v -4.756173 5.349227 2.256879
v -4.727740 5.325893 2.256879
v -4.695302 5.308554 2.256879
v -4.660103 5.297877 2.256879
v -4.623499 5.294272 2.256879
v -4.586895 5.297877 2.256879
v -4.551696 5.308554 2.256879
v -4.519258 5.325893 2.256879
v -4.490825 5.349227 2.256879
v -4.467491 5.377660 2.256879
v -4.450152 5.410098 2.256879
v -4.439475 5.445296 2.256879
v -4.435870 5.481901 2.256879
v -4.439475 5.518505 2.256879
v -4.450152 5.553703 2.256879
v -4.467491 5.586142 2.256879
v -4.490825 5.614574 2.256879
v -4.519258 5.637908 2.256879
v -4.551696 5.655247 2.256879
v -4.586895 5.665924 2.256879
vn -0.0000 -0.0000 -1.0000
vn -0.0000 -0.0000 1.0000
vn -0.8819 -0.4714 -0.0000
vn 0.9952 0.0980 -0.0000
vn -0.7730 -0.6344 -0.0000
vn 0.9569 0.2903 -0.0000
vn -0.6344 -0.7730 -0.0000
vn 0.8819 0.4714 -0.0000
vn -0.4714 -0.8819 -0.0000
vn -0.0980 0.9952 -0.0000
vn 0.7730 0.6344 -0.0000
vn -0.2903 -0.9569 -0.0000
vn -0.2903 0.9569 -0.0000
vn 0.6344 0.7730 -0.0000
vn -0.0980 -0.9952 -0.0000
vn -0.4714 0.8819 -0.0000
vn 0.4714 0.8819 -0.0000
vn 0.0980 -0.9952 -0.0000
vn -0.6344 0.7730 -0.0000
vn 0.2903 0.9569 -0.0000
vn 0.2903 -0.9569 -0.0000
vn -0.7730 0.6344 -0.0000
vn 0.0980 0.9952 -0.0000
vn 0.4714 -0.8819 -0.0000
vn -0.8819 0.4714 -0.0000
vn 0.6344 -0.7730 -0.0000
vn -0.9569 0.2903 -0.0000
vn 0.7730 -0.6344 -0.0000
vn -0.9952 0.0980 -0.0000
vn 0.8819 -0.4714 -0.0000
vn -0.9952 -0.0980 -0.0000
vn 0.9569 -0.2903 -0.0000
vn -0.9569 -0.2903 -0.0000
vn 0.9952 -0.0980 -0.0000
vt 0.000000 0.000000
s 1
usemtl Material.012
f 66/2/35 65/2/35 96/2/35 95/2/35 94/2/35 93/2/35 92/2/35 91/2/35 90/2/35 89/2/35 88/2/35 87/2/35 86/2/35 85/2/35 84/2/35 83/2/35 82/2/35 81/2/35 80/2/35 79/2/35 78/2/35 77/2/35 76/2/35 75/2/35 74/2/35 73/2/35 72/2/35 71/2/35 70/2/35 69/2/35 68/2/35 67/2/35
f 97/2/36 99/2/36 100/2/36 101/2/36 102/2/36 103/2/36 104/2/36 105/2/36 106/2/36 107/2/36 108/2/36 109/2/36 110/2/36 111/2/36 112/2/36 113/2/36 114/2/36 115/2/36 116/2/36 117/2/36 118/2/36 119/2/36 120/2/36 121/2/36 122/2/36 123/2/36 124/2/36 125/2/36 126/2/36 127/2/36 128/2/36 98/2/36
f 75/2/37 76/2/37 108/2/37 107/2/37
f 89/2/38 90/2/38 122/2/38 121/2/38
f 76/2/39 77/2/39 109/2/39 108/2/39
f 90/2/40 91/2/40 123/2/40 122/2/40
f 77/2/41 78/2/41 110/2/41 109/2/41
f 91/2/42 92/2/42 124/2/42 123/2/42
f 78/2/43 79/2/43 111/2/43 110/2/43
f 65/2/44 66/2/44 97/2/44 98/2/44
f 92/2/45 93/2/45 125/2/45 124/2/45
f 79/2/46 80/2/46 112/2/46 111/2/46
f 66/2/47 67/2/47 99/2/47 97/2/47
f 93/2/48 94/2/48 126/2/48 125/2/48
f 80/2/49 81/2/49 113/2/49 112/2/49
f 67/2/50 68/2/50 100/2/50 99/2/50
f 94/2/51 95/2/51 127/2/51 126/2/51
f 81/2/52 82/2/52 114/2/52 113/2/52
f 68/2/53 69/2/53 101/2/53 100/2/53
f 95/2/54 96/2/54 128/2/54 127/2/54
f 82/2/55 83/2/55 115/2/55 114/2/55
f 69/2/56 70/2/56 102/2/56 101/2/56
f 96/2/57 65/2/57 98/2/57 128/2/57
f 83/2/58 84/2/58 116/2/58 115/2/58
f 70/2/59 71/2/59 103/2/59 102/2/59
f 84/2/60 85/2/60 117/2/60 116/2/60
f 71/2/61 72/2/61 104/2/61 103/2/61
f 85/2/62 86/2/62 118/2/62 117/2/62
f 72/2/63 73/2/63 105/2/63 104/2/63
f 86/2/64 87/2/64 119/2/64 118/2/64
f 73/2/65 74/2/65 106/2/65 105/2/65
f 87/2/66 88/2/66 120/2/66 119/2/66
f 74/2/67 75/2/67 107/2/67 106/2/67
f 88/2/68 89/2/68 121/2/68 120/2/68
o Cube.001
v -3.705434 0.011936 0.692893
v -3.705434 11.464182 0.692891
v -3.705434 0.011936 -0.225789
v -3.705434 11.464182 -0.225791
v 3.663237 0.011936 0.692893
v 3.663237 11.464182 0.692891
v 3.663237 0.011936 -0.225789
v 3.663237 11.464182 -0.225791
v -0.048824 11.464182 -0.225791
v -0.048824 0.011936 -0.225789
v -0.048824 11.464182 0.692891
v -0.048824 0.011936 0.692893
v 0.048825 11.464182 -0.225791
v 0.048825 0.011936 -0.225789
v 0.048825 11.464182 0.692891
v 0.048825 0.011936 0.692893
vn -1.0000 -0.0000 -0.0000
vn -0.0000 -0.0000 -1.0000
vn -0.0000 -0.0000 1.0000
vn -0.0000 -1.0000 -0.0000
vn -0.0000 1.0000 -0.0000
vn 1.0000 -0.0000 -0.0000
vt 0.375000 0.000000
vt 0.625000 0.000000
vt 0.625000 0.250000
vt 0.375000 0.250000
vt 0.625000 0.498176
vt 0.375000 0.498176
vt 0.625000 1.000000
vt 0.375000 1.000000
vt 0.375000 0.751824
vt 0.625000 0.751824
vt 0.373176 0.750000
vt 0.125000 0.750000
vt 0.125000 0.500000
vt 0.373176 0.500000
vt 0.626824 0.500000
vt 0.875000 0.500000
vt 0.875000 0.750000
vt 0.626824 0.750000
vt 0.625000 0.254688
vt 0.625000 0.500000
vt 0.375000 0.500000
vt 0.375000 0.254688
vt 0.625000 0.750000
vt 0.375000 0.750000
vt 0.625000 0.995312
vt 0.375000 0.995312
vt 0.129688 0.750000
vt 0.129688 0.500000
vt 0.870312 0.500000
vt 0.870312 0.750000
vt 0.408355 0.153224
vt 0.602792 0.153224
vt 0.602792 0.038389
vt 0.408355 0.038388
vt 0.602792 0.596776
vt 0.408355 0.596776
vt 0.408355 0.711612
vt 0.602792 0.711611
s 1
usemtl Material.013
f 129/3/69 130/4/69 132/5/69 131/6/69
f 131/6/70 132/5/70 137/7/70 138/8/70
f 130/9/71 129/10/71 140/11/71 139/12/71
f 140/13/72 129/14/72 131/15/72 138/16/72
f 137/17/73 132/18/73 130/19/73 139/20/73
f 141/21/70 136/22/70 135/23/70 142/24/70
f 135/23/74 136/22/74 134/25/74 133/26/74
f 133/26/71 134/25/71 143/27/71 144/28/71
f 135/23/72 133/26/72 144/29/72 142/30/72
f 134/25/73 136/22/73 141/31/73 143/32/73
s 0
f 138/33/74 137/34/74 139/35/74 140/36/74
f 141/37/69 142/38/69 144/39/69 143/40/69
o Circle
v -4.623499 6.131657 2.229930
v -4.660103 6.128052 2.229930
v -4.695302 6.117375 2.229930
v -4.727740 6.100036 2.229930
v -4.756173 6.076702 2.229930
v -4.779507 6.048269 2.229930
v -4.796845 6.015831 2.229930
v -4.807523 5.980633 2.229930
v -4.811128 5.944028 2.229930
v -4.807523 5.907424 2.229930
v -4.796845 5.872226 2.229930
v -4.779507 5.839787 2.229930
v -4.756173 5.811355 2.229930
v -4.727740 5.788021 2.229930
v -4.695302 5.770682 2.229930
v -4.660103 5.760005 2.229930
v -4.623499 5.756400 2.229930
v -4.586895 5.760005 2.229930
v -4.551696 5.770682 2.229930
v -4.519258 5.788021 2.229930
v -4.490825 5.811355 2.229930
v -4.467491 5.839787 2.229930
v -4.450152 5.872226 2.229930
v -4.439475 5.907424 2.229930
v -4.435870 5.944028 2.229930
v -4.439475 5.980633 2.229930
v -4.450152 6.015831 2.229930
v -4.467491 6.048269 2.229930
v -4.490825 6.076702 2.229930
v -4.519258 6.100036 2.229930
v -4.551696 6.117375 2.229930
v -4.586895 6.128052 2.229930
v -4.660103 6.128052 2.256879
v -4.623499 6.131657 2.256879
v -4.695302 6.117375 2.256879
v -4.727740 6.100036 2.256879
v -4.756173 6.076702 2.256879
v -4.779507 6.048269 2.256879
v -4.796845 6.015831 2.256879
v -4.807523 5.980633 2.256879
v -4.811128 5.944028 2.256879
v -4.807523 5.907424 2.256879
v -4.796845 5.872226 2.256879
v -4.779507 5.839787 2.256879
v -4.756173 5.811355 2.256879
v -4.727740 5.788021 2.256879
v -4.695302 5.770682 2.256879
v -4.660103 5.760005 2.256879
v -4.623499 5.756400 2.256879
v -4.586895 5.760005 2.256879
v -4.551696 5.770682 2.256879
v -4.519258 5.788021 2.256879
v -4.490825 5.811355 2.256879
v -4.467491 5.839787 2.256879
v -4.450152 5.872226 2.256879
v -4.439475 5.907424 2.256879
v -4.435870 5.944028 2.256879
v -4.439475 5.980633 2.256879
v -4.450152 6.015831 2.256879
v -4.467491 6.048269 2.256879
v -4.490825 6.076702 2.256879
v -4.519258 6.100036 2.256879
v -4.551696 6.117375 2.256879
v -4.586895 6.128052 2.256879
vn -0.0000 -0.0000 -1.0000
vn -0.0000 -0.0000 1.0000
vn -0.8819 -0.4714 -0.0000
vn 0.9952 0.0980 -0.0000
vn -0.7730 -0.6344 -0.0000
vn 0.9569 0.2903 -0.0000
vn -0.6344 -0.7730 -0.0000
vn 0.8819 0.4714 -0.0000
vn -0.4714 -0.8819 -0.0000
vn -0.0980 0.9952 -0.0000
vn 0.7730 0.6344 -0.0000
vn -0.2903 -0.9569 -0.0000
vn -0.2903 0.9569 -0.0000
vn 0.6344 0.7730 -0.0000
vn -0.0980 -0.9952 -0.0000
vn -0.4714 0.8819 -0.0000
vn 0.4714 0.8819 -0.0000
vn 0.0980 -0.9952 -0.0000
vn -0.6344 0.7730 -0.0000
vn 0.2903 0.9569 -0.0000
vn 0.2903 -0.9569 -0.0000
vn -0.7730 0.6344 -0.0000
vn 0.0980 0.9952 -0.0000
vn 0.4714 -0.8819 -0.0000
vn -0.8819 0.4714 -0.0000
vn 0.6344 -0.7730 -0.0000
vn -0.9569 0.2903 -0.0000
vn 0.7730 -0.6344 -0.0000
vn -0.9952 0.0980 -0.0000
vn 0.8819 -0.4714 -0.0000
vn -0.9952 -0.0980 -0.0000
vn 0.9569 -0.2903 -0.0000
vn -0.9569 -0.2903 -0.0000
vn 0.9952 -0.0980 -0.0000
vt 0.000000 0.000000
s 1
usemtl Material.011
f 146/41/75 145/41/75 176/41/75 175/41/75 174/41/75 173/41/75 172/41/75 171/41/75 170/41/75 169/41/75 168/41/75 167/41/75 166/41/75 165/41/75 164/41/75 163/41/75 162/41/75 161/41/75 160/41/75 159/41/75 158/41/75 157/41/75 156/41/75 155/41/75 154/41/75 153/41/75 152/41/75 151/41/75 150/41/75 149/41/75 148/41/75 147/41/75
f 177/41/76 179/41/76 180/41/76 181/41/76 182/41/76 183/41/76 184/41/76 185/41/76 186/41/76 187/41/76 188/41/76 189/41/76 190/41/76 191/41/76 192/41/76 193/41/76 194/41/76 195/41/76 196/41/76 197/41/76 198/41/76 199/41/76 200/41/76 201/41/76 202/41/76 203/41/76 204/41/76 205/41/76 206/41/76 207/41/76 208/41/76 178/41/76
f 155/41/77 156/41/77 188/41/77 187/41/77
f 169/41/78 170/41/78 202/41/78 201/41/78
f 156/41/79 157/41/79 189/41/79 188/41/79
f 170/41/80 171/41/80 203/41/80 202/41/80
f 157/41/81 158/41/81 190/41/81 189/41/81
f 171/41/82 172/41/82 204/41/82 203/41/82
f 158/41/83 159/41/83 191/41/83 190/41/83
f 145/41/84 146/41/84 177/41/84 178/41/84
f 172/41/85 173/41/85 205/41/85 204/41/85
f 159/41/86 160/41/86 192/41/86 191/41/86
f 146/41/87 147/41/87 179/41/87 177/41/87
f 173/41/88 174/41/88 206/41/88 205/41/88
f 160/41/89 161/41/89 193/41/89 192/41/89
f 147/41/90 148/41/90 180/41/90 179/41/90
f 174/41/91 175/41/91 207/41/91 206/41/91
f 161/41/92 162/41/92 194/41/92 193/41/92
f 148/41/93 149/41/93 181/41/93 180/41/93
f 175/41/94 176/41/94 208/41/94 207/41/94
f 162/41/95 163/41/95 195/41/95 194/41/95
f 149/41/96 150/41/96 182/41/96 181/41/96
f 176/41/97 145/41/97 178/41/97 208/41/97
f 163/41/98 164/41/98 196/41/98 195/41/98
f 150/41/99 151/41/99 183/41/99 182/41/99
f 164/41/100 165/41/100 197/41/100 196/41/100
f 151/41/101 152/41/101 184/41/101 183/41/101
f 165/41/102 166/41/102 198/41/102 197/41/102
f 152/41/103 153/41/103 185/41/103 184/41/103
f 166/41/104 167/41/104 199/41/104 198/41/104
f 153/41/105 154/41/105 186/41/105 185/41/105
f 167/41/106 168/41/106 200/41/106 199/41/106
f 154/41/107 155/41/107 187/41/107 186/41/107
f 168/41/108 169/41/108 201/41/108 200/41/108
o Cube.004
v -4.921333 5.137807 2.246729
v -4.921333 6.306161 2.246729
v -4.921333 5.137807 2.101161
v -4.921333 6.306161 2.101161
v -4.311391 5.137807 2.246729
v -4.311391 6.306161 2.246729
v -4.311391 5.137807 2.101161
v -4.311391 6.306161 2.101161
vn -1.0000 -0.0000 -0.0000
vn -0.0000 -0.0000 -1.0000
vn 1.0000 -0.0000 -0.0000
vn -0.0000 -0.0000 1.0000
vn -0.0000 -1.0000 -0.0000
vn -0.0000 1.0000 -0.0000
vt 0.375000 0.000000
vt 0.625000 0.000000
vt 0.625000 0.250000
vt 0.375000 0.250000
vt 0.625000 0.500000
vt 0.375000 0.500000
vt 0.625000 0.750000
vt 0.375000 0.750000
vt 0.625000 1.000000
vt 0.375000 1.000000
vt 0.125000 0.500000
vt 0.125000 0.750000
vt 0.875000 0.500000
vt 0.875000 0.750000
s 1
usemtl Material.013
f 209/42/109 210/43/109 212/44/109 211/45/109
f 211/45/110 212/44/110 216/46/110 215/47/110
f 215/47/111 216/46/111 214/48/111 213/49/111
f 213/49/112 214/48/112 210/50/112 209/51/112
f 211/52/113 215/47/113 213/49/113 209/53/113
f 216/46/114 212/54/114 210/55/114 214/48/114
o Circle.003
v -4.623499 5.637677 2.250269
v -4.653154 5.634757 2.250269
v -4.681670 5.626106 2.250269
v -4.707950 5.612060 2.250269
v -4.730985 5.593155 2.250269
v -4.749889 5.570120 2.250269
v -4.763936 5.543840 2.250269
v -4.772586 5.515325 2.250269
v -4.775507 5.485669 2.250269
v -4.772586 5.456014 2.250269
v -4.763936 5.427498 2.250269
v -4.749889 5.401218 2.250269
v -4.730985 5.378183 2.250269
v -4.707950 5.359279 2.250269
v -4.681670 5.345232 2.250269
v -4.653154 5.336582 2.250269
v -4.623499 5.333661 2.250269
v -4.593843 5.336582 2.250269
v -4.565328 5.345232 2.250269
v -4.539048 5.359279 2.250269
v -4.516013 5.378183 2.250269
v -4.497108 5.401218 2.250269
v -4.483062 5.427498 2.250269
v -4.474411 5.456014 2.250269
v -4.471491 5.485669 2.250269
v -4.474411 5.515325 2.250269
v -4.483062 5.543840 2.250269
v -4.497108 5.570120 2.250269
v -4.516013 5.593155 2.250269
v -4.539048 5.612060 2.250269
v -4.565328 5.626106 2.250269
v -4.593843 5.634757 2.250269
v -4.653154 5.634757 2.272102
v -4.623499 5.637677 2.272102
v -4.681670 5.626106 2.272102
v -4.707950 5.612060 2.272102
v -4.730985 5.593155 2.272102
v -4.749889 5.570120 2.272102
v -4.763936 5.543840 2.272102
v -4.772586 5.515325 2.272102
v -4.775507 5.485669 2.272102
v -4.772586 5.456014 2.272102
v -4.763936 5.427498 2.272102
v -4.749889 5.401218 2.272102
v -4.730985 5.378183 2.272102
v -4.707950 5.359279 2.272102
v -4.681670 5.345232 2.272102
v -4.653154 5.336582 2.272102
v -4.623499 5.333661 2.272102
v -4.593843 5.336582 2.272102
v -4.565328 5.345232 2.272102
v -4.539048 5.359279 2.272102
v -4.516013 5.378183 2.272102
v -4.497108 5.401218 2.272102
v -4.483062 5.427498 2.272102
v -4.474411 5.456014 2.272102
v -4.471491 5.485669 2.272102
v -4.474411 5.515325 2.272102
v -4.483062 5.543840 2.272102
v -4.497108 5.570120 2.272102
v -4.516013 5.593155 2.272102
v -4.539048 5.612060 2.272102
v -4.565328 5.626106 2.272102
v -4.593843 5.634757 2.272102
vn -0.0000 -0.0000 -1.0000
vn -0.0000 -0.0000 1.0000
vn -0.8819 -0.4714 -0.0000
vn 0.9952 0.0980 -0.0000
vn -0.7730 -0.6344 -0.0000
vn 0.9569 0.2903 -0.0000
vn -0.6344 -0.7730 -0.0000
vn 0.8819 0.4714 -0.0000
vn -0.4714 -0.8819 -0.0000
vn -0.0980 0.9952 -0.0000
vn 0.7730 0.6344 -0.0000
vn -0.2903 -0.9569 -0.0000
vn -0.2903 0.9569 -0.0000
vn 0.6344 0.7730 -0.0000
vn -0.0980 -0.9952 -0.0000
vn -0.4714 0.8819 -0.0000
vn 0.4714 0.8819 -0.0000
vn 0.0980 -0.9952 -0.0000
vn -0.6344 0.7730 -0.0000
vn 0.2903 0.9569 -0.0000
vn 0.2903 -0.9569 -0.0000
vn -0.7730 0.6344 -0.0000
vn 0.0980 0.9952 -0.0000
vn 0.4714 -0.8819 -0.0000
vn -0.8819 0.4714 -0.0000
vn 0.6344 -0.7730 -0.0000
vn -0.9569 0.2903 -0.0000
vn 0.7730 -0.6344 -0.0000
vn -0.9952 0.0980 -0.0000
vn 0.8819 -0.4714 -0.0000
vn -0.9952 -0.0980 -0.0000
vn 0.9569 -0.2903 -0.0000
vn -0.9569 -0.2903 -0.0000
vn 0.9952 -0.0980 -0.0000
vt 0.000000 0.000000
s 1
usemtl Material.013
f 218/56/115 217/56/115 248/56/115 247/56/115 246/56/115 245/56/115 244/56/115 243/56/115 242/56/115 241/56/115 240/56/115 239/56/115 238/56/115 237/56/115 236/56/115 235/56/115 234/56/115 233/56/115 232/56/115 231/56/115 230/56/115 229/56/115 228/56/115 227/56/115 226/56/115 225/56/115 224/56/115 223/56/115 222/56/115 221/56/115 220/56/115 219/56/115
f 249/56/116 251/56/116 252/56/116 253/56/116 254/56/116 255/56/116 256/56/116 257/56/116 258/56/116 259/56/116 260/56/116 261/56/116 262/56/116 263/56/116 264/56/116 265/56/116 266/56/116 267/56/116 268/56/116 269/56/116 270/56/116 271/56/116 272/56/116 273/56/116 274/56/116 275/56/116 276/56/116 277/56/116 278/56/116 279/56/116 280/56/116 250/56/116
f 227/56/117 228/56/117 260/56/117 259/56/117
f 241/56/118 242/56/118 274/56/118 273/56/118
f 228/56/119 229/56/119 261/56/119 260/56/119
f 242/56/120 243/56/120 275/56/120 274/56/120
f 229/56/121 230/56/121 262/56/121 261/56/121
f 243/56/122 244/56/122 276/56/122 275/56/122
f 230/56/123 231/56/123 263/56/123 262/56/123
f 217/56/124 218/56/124 249/56/124 250/56/124
f 244/56/125 245/56/125 277/56/125 276/56/125
f 231/56/126 232/56/126 264/56/126 263/56/126
f 218/56/127 219/56/127 251/56/127 249/56/127
f 245/56/128 246/56/128 278/56/128 277/56/128
f 232/56/129 233/56/129 265/56/129 264/56/129
f 219/56/130 220/56/130 252/56/130 251/56/130
f 246/56/131 247/56/131 279/56/131 278/56/131
f 233/56/132 234/56/132 266/56/132 265/56/132
f 220/56/133 221/56/133 253/56/133 252/56/133
f 247/56/134 248/56/134 280/56/134 279/56/134
f 234/56/135 235/56/135 267/56/135 266/56/135
f 221/56/136 222/56/136 254/56/136 253/56/136
f 248/56/137 217/56/137 250/56/137 280/56/137
f 235/56/138 236/56/138 268/56/138 267/56/138
f 222/56/139 223/56/139 255/56/139 254/56/139
f 236/56/140 237/56/140 269/56/140 268/56/140
f 223/56/141 224/56/141 256/56/141 255/56/141
f 237/56/142 238/56/142 270/56/142 269/56/142
f 224/56/143 225/56/143 257/56/143 256/56/143
f 238/56/144 239/56/144 271/56/144 270/56/144
f 225/56/145 226/56/145 258/56/145 257/56/145
f 239/56/146 240/56/146 272/56/146 271/56/146
f 226/56/147 227/56/147 259/56/147 258/56/147
f 240/56/148 241/56/148 273/56/148 272/56/148
o Cube.002
v -0.848059 12.330677 2.245284
v -0.848059 13.232040 2.245284
v -1.000000 12.249931 1.981839
v -1.000000 13.312786 1.981839
v 0.848059 12.330677 2.245284
v 0.848059 13.232040 2.245284
v 1.000000 12.249931 1.981839
v 1.000000 13.312786 1.981839
v -1.000000 12.249931 2.245284
v -1.000000 13.312786 2.245284
v 1.000000 13.312786 2.245284
v 1.000000 12.249931 2.245284
v -0.848059 12.330677 2.196103
v -0.848059 13.232040 2.196103
v 0.848059 13.232040 2.196103
v 0.848059 12.330677 2.196103
v -5.512512 0.009207 2.171142
v -5.512512 14.029557 2.171139
v -5.512512 0.009207 -2.171139
v -5.512512 14.029556 -2.171142
v -3.663630 11.416870 0.023990
v 5.434075 0.009207 2.171142
v 5.434075 14.029557 2.171139
v 5.434075 0.009207 -2.171139
v 5.434075 14.029556 -2.171142
v 3.584935 11.416870 0.023990
v 3.584935 11.416870 2.171139
v -3.663630 0.009207 2.171142
v 3.584935 0.009207 2.171142
v -3.663630 11.416870 2.171139
v 3.584935 0.009207 0.023992
v -3.663630 0.009207 0.023992
vn -1.0000 -0.0000 -0.0000
vn -0.0000 -0.0000 -1.0000
vn 1.0000 -0.0000 -0.0000
vn -0.0000 1.0000 -0.0000
vn -0.0000 -1.0000 -0.0000
vn -0.0000 -0.0000 1.0000
vt 0.375000 0.000000
vt 0.625000 0.000000
vt 0.625000 0.250000
vt 0.375000 0.250000
vt 0.625000 0.500000
vt 0.375000 0.500000
vt 0.625000 0.750000
vt 0.375000 0.750000
vt 0.393993 0.981007
vt 0.393993 0.768993
vt 0.125000 0.500000
vt 0.125000 0.750000
vt 0.875000 0.500000
vt 0.875000 0.750000
vt 0.606007 0.981007
vt 0.625000 1.000000
vt 0.375000 1.000000
vt 0.606007 0.768993
vt 0.375000 0.784717
vt 0.375000 0.967265
vt 0.578413 0.967265
vt 0.578413 0.784717
vt 0.157735 0.750000
vt 0.340283 0.750000
vt 0.340283 0.626381
vt 0.157735 0.626381
vt 0.390776 0.250000
vt 0.625000 0.080704
vt 0.390776 0.080704
vt 0.390776 0.500000
vt 0.625000 0.669296
vt 0.390776 0.669296
vt 0.875000 0.669296
s 0
usemtl Material.002
f 296/66/154 295/74/154 294/71/154 293/65/154
usemtl Material.003
f 289/57/149 290/58/149 284/59/149 283/60/149
f 283/60/150 284/59/150 288/61/150 287/62/150
f 287/62/151 288/61/151 291/63/151 292/64/151
f 281/65/152 285/66/152 296/66/152 293/65/152
f 283/67/153 287/62/153 292/64/153 289/68/153
f 288/61/152 284/69/152 290/70/152 291/63/152
f 281/65/154 282/71/154 290/72/154 289/73/154
f 286/74/154 285/66/154 292/64/154 291/63/154
f 285/66/154 281/65/154 289/73/154 292/64/154
f 282/71/154 286/74/154 291/63/154 290/72/154
f 282/71/151 281/65/151 293/65/151 294/71/151
f 286/74/153 282/71/153 294/71/153 295/74/153
f 285/66/149 286/74/149 295/74/149 296/66/149
s 1
usemtl Material.001
f 297/73/149 298/72/149 300/69/149 299/60/149
f 299/60/150 300/59/150 305/61/150 304/62/150
f 304/62/151 305/61/151 303/63/151 302/64/151
f 309/75/154 302/64/154 303/63/154 298/72/154 297/73/154 308/76/154 310/77/154 307/78/154
f 308/79/153 297/68/153 299/67/153 304/62/153 302/64/153 309/80/153 311/81/153 312/82/153
f 305/61/152 300/69/152 298/70/152 303/63/152
f 312/83/151 301/59/151 310/84/151 308/85/151
f 311/86/154 306/61/154 301/59/154 312/83/154
f 307/87/149 306/61/149 311/86/149 309/88/149
f 301/69/153 306/61/153 307/87/153 310/89/153
