# Blender 5.2.1 LTS
# www.blender.org
mtllib kann.mtl
o Cube.002
v 2.329127 4.310604 -0.152154
v 2.329127 4.310604 0.152153
v 1.984660 4.310604 -0.152154
v 1.984660 4.310604 0.152153
v 2.329127 3.958279 -0.152153
v 1.984660 3.958279 0.152153
v 2.329127 3.958279 0.152153
v 1.984660 3.958279 -0.152153
v 0.015456 4.310604 -0.152154
v 0.015456 4.310604 0.152153
v 0.015456 3.958279 0.152153
v 0.015456 3.958279 -0.152153
v 2.329127 0.005291 -0.152153
v 2.329127 0.005291 0.152154
v 1.984660 0.005291 -0.152153
v 1.984660 0.005291 0.152154
v 1.984660 3.958279 0.170539
v 1.984660 4.310604 0.170539
v 2.329127 4.310604 0.170539
v 2.329127 3.958279 0.170539
v 0.015456 4.310604 0.170539
v 0.015456 3.958279 0.170539
v -2.297010 4.310604 -0.152154
v -2.297010 4.310604 0.152153
v -1.952543 4.310604 -0.152154
v -1.952543 4.310604 0.152153
v -2.297010 3.958279 -0.152153
v -1.952543 3.958279 0.152153
v -2.297010 3.958279 0.152153
v -1.952543 3.958279 -0.152153
v 0.016661 4.310604 -0.152154
v 0.016661 4.310604 0.152153
v 0.016661 3.958279 0.152153
v 0.016661 3.958279 -0.152153
v -2.297010 0.005291 -0.152153
v -2.297010 0.005291 0.152154
v -1.952543 0.005291 -0.152153
v -1.952543 0.005291 0.152154
v -1.952543 3.958279 0.170539
v -1.952543 4.310604 0.170539
v -2.297010 4.310604 0.170539
v -2.297010 3.958279 0.170539
v 0.016661 4.310604 0.170539
v 0.016661 3.958279 0.170539
vn -0.0000 1.0000 -0.0000
vn -0.0000 -1.0000 -0.0000
vn 1.0000 -0.0000 -0.0000
vn -0.0000 -0.0000 -1.0000
vn -1.0000 -0.0000 -0.0000
vn -0.0000 -0.0000 1.0000
vt 0.625000 0.500000
vt 0.875000 0.500000
vt 0.875000 0.750000
vt 0.625000 0.750000
vt 0.600418 1.000000
vt 0.600418 0.750000
vt 0.600418 0.500000
vt 0.600418 0.250000
vt 0.625000 0.250000
vt 0.391604 0.250000
vt 0.391604 0.500000
vt 0.391604 0.750000
vt 0.391604 0.000000
vt 0.600418 0.000000
vt 0.391604 1.000000
vt 0.625000 0.250000
vt 0.875000 0.750000
vt 0.625000 1.000000
vt 0.625000 1.000000
s 1
usemtl Material.014
f 1/1/1 3/2/1 4/3/1 2/4/1
f 6/5/2 7/6/2 20/6/2 17/5/2
f 5/7/3 1/1/3 2/4/3 7/6/3
f 8/8/4 3/9/4 1/1/4 5/7/4
f 15/10/4 8/8/4 5/7/4 13/11/4
f 13/11/3 5/7/3 7/6/3 14/12/3
f 16/13/5 6/14/5 8/8/5 15/10/5
f 14/12/6 7/6/6 6/5/6 16/15/6
f 2/4/1 4/3/1 18/3/1 19/4/1
f 3/9/4 8/8/4 12/8/4 9/16/4
f 11/14/2 6/14/2 17/14/2 22/14/2
f 8/8/2 6/14/2 11/14/2 12/8/2
f 4/3/1 3/2/1 9/2/1 10/17/1
f 14/12/2 16/13/2 15/10/2 13/11/2
f 20/6/6 19/4/6 18/18/6 17/5/6
f 17/5/6 18/18/6 21/19/6 22/5/6
f 22/5/5 21/19/5 10/17/5 9/2/5 12/8/5 11/14/5
f 4/3/1 10/17/1 21/17/1 18/3/1
f 7/6/3 2/4/3 19/4/3 20/6/3
f 23/1/1 24/4/1 26/3/1 25/2/1
f 28/5/2 39/5/2 42/6/2 29/6/2
f 27/7/5 29/6/5 24/4/5 23/1/5
f 30/8/4 27/7/4 23/1/4 25/9/4
f 37/10/4 35/11/4 27/7/4 30/8/4
f 35/11/5 36/12/5 29/6/5 27/7/5
f 38/13/3 37/10/3 30/8/3 28/14/3
f 36/12/6 38/15/6 28/5/6 29/6/6
f 24/4/1 41/4/1 40/3/1 26/3/1
f 25/9/4 31/16/4 34/8/4 30/8/4
f 33/14/2 44/14/2 39/14/2 28/14/2
f 30/8/2 34/8/2 33/14/2 28/14/2
f 26/3/1 32/17/1 31/2/1 25/2/1
f 36/12/2 35/11/2 37/10/2 38/13/2
f 42/6/6 39/5/6 40/18/6 41/4/6
f 39/5/6 44/5/6 43/19/6 40/18/6
f 44/5/3 33/14/3 34/8/3 31/2/3 32/17/3 43/19/3
f 26/3/1 40/3/1 43/17/1 32/17/1
f 29/6/5 42/6/5 41/4/5 24/4/5
