# Blender 5.2.1 LTS
# www.blender.org
mtllib doornright.mtl
o Cube.008
v 0.230744 0.250314 -0.055283
v 0.230744 3.757205 -0.055282
v 0.230744 0.250314 0.055283
v 0.230744 3.757205 0.055283
v 1.761457 0.250314 -0.055283
v 1.761456 3.757206 -0.055282
v 1.761457 0.250314 0.055283
v 1.761456 3.757206 0.055283
v 1.990113 3.994577 -0.102722
v 1.990113 0.005210 -0.102722
v 1.990113 3.994577 0.102722
v 1.990113 0.005211 0.102722
v 1.728666 3.994577 -0.102722
v 1.728666 0.005211 -0.102722
v 1.728666 3.994577 0.102722
v 1.728666 0.005211 0.102722
v 1.990113 3.727166 -0.102722
v 1.728666 3.727166 0.102722
v 1.990113 3.727166 0.102722
v 1.728666 3.727166 -0.102722
v 0.001589 3.727166 0.102722
v 0.001589 3.994577 0.102722
v 0.001589 3.994577 -0.102722
v 0.001589 3.727166 -0.102722
v 0.001586 0.279362 0.102722
v 0.001586 0.279362 -0.102722
v 0.001586 0.005210 0.102722
v 0.001586 0.005210 -0.102722
v 0.264304 3.994577 -0.102722
v 0.264304 3.994577 0.102722
v 0.264304 3.727166 0.102722
v 0.264304 3.727166 -0.102722
v 1.990113 0.279362 -0.102722
v 1.990113 0.279362 0.102722
v 1.728666 0.279362 -0.102722
v 1.728666 0.279362 0.102722
v 0.001589 0.279339 0.102722
v 0.001589 0.279339 -0.102722
v 0.264304 0.279339 0.102722
v 0.264304 0.279339 -0.102722
v 0.263833 0.005210 -0.102722
v 0.263833 0.005210 0.102722
v 0.263833 0.279362 0.102722
v 0.263833 0.279362 -0.102722
v 1.728666 3.727166 0.132293
v 1.728666 3.994577 0.132293
v 1.990113 0.279362 0.132294
v 1.990113 0.005211 0.132294
v 1.990113 3.994577 0.132293
v 1.728666 0.005211 0.132294
v 1.990113 3.727166 0.132293
v 0.001589 3.727166 0.132293
v 0.001589 3.994577 0.132293
v 0.264304 3.994577 0.132293
v 0.264304 3.727166 0.132293
v 0.263833 0.005210 0.132294
v 0.263833 0.279362 0.132294
v 1.728666 0.279362 0.132294
v 0.001586 0.005210 0.132294
v 0.001586 0.279362 0.132294
v 0.007296 1.464533 0.125717
v 0.007297 1.164795 0.125717
v 0.007296 1.464533 -0.125717
v 0.007297 1.164795 -0.125717
v 2.018038 1.464534 0.125717
v 2.018038 1.164795 0.125717
v 2.018038 1.464534 -0.125717
v 2.018038 1.164795 -0.125717
v 1.817438 3.262677 0.125274
v 1.817438 3.515692 0.125274
v 1.817438 3.262677 0.084136
v 1.817438 3.515692 0.084136
v 1.894755 3.262677 0.125274
v 1.894755 3.515692 0.125274
v 1.894755 3.262677 0.084136
v 1.894755 3.515692 0.084136
vn -1.0000 -0.0000 -0.0000
vn -0.0000 -0.0000 1.0000
vn 1.0000 -0.0000 -0.0000
vn -0.0000 -0.0000 -1.0000
vn -0.0000 -1.0000 -0.0000
vn -0.0000 1.0000 -0.0000
vt 0.375000 0.000000
vt 0.625000 0.000000
vt 0.625000 0.250000
vt 0.375000 0.250000
vt 0.625000 0.500000
vt 0.375000 0.500000
vt 0.625000 0.750000
vt 0.375000 0.750000
vt 0.625000 1.000000
vt 0.375000 1.000000
vt 0.125000 0.500000
vt 0.125000 0.750000
vt 0.875000 0.500000
vt 0.875000 0.750000
vt 0.391604 0.000000
vt 0.875000 0.750000
vt 0.600418 0.500000
vt 0.600418 0.750000
vt 0.600418 0.250000
vt 0.391604 0.250000
vt 0.391604 0.500000
vt 0.391604 0.750000
vt 0.600418 0.000000
vt 0.600418 1.000000
vt 0.391604 1.000000
vt 0.625000 0.250000
vt 0.625000 1.000000
s 1
usemtl Material.009
f 1/1/1 3/4/1 4/3/1 2/2/1
f 3/4/2 7/6/2 8/5/2 4/3/2
f 7/6/3 5/8/3 6/7/3 8/5/3
f 5/8/4 1/10/4 2/9/4 6/7/4
f 3/11/5 1/12/5 5/8/5 7/6/5
f 8/5/6 6/7/6 2/14/6 4/13/6
usemtl Material.011
f 9/5/5 11/7/5 15/14/5 13/13/5
f 36/15/5 58/15/5 57/15/5 43/15/5
f 30/16/5 22/14/5 23/13/5 29/13/5
f 14/11/6 16/12/6 12/8/6 10/6/6
f 17/17/1 19/18/1 11/7/1 9/5/1
f 20/19/2 17/17/2 9/5/2 13/3/2
f 35/20/2 33/21/2 17/17/2 20/19/2
f 33/21/1 34/22/1 19/18/1 17/17/1
f 36/15/3 35/20/3 20/19/3 18/23/3
f 34/22/4 36/25/4 18/24/4 19/18/4
f 21/23/3 24/19/3 23/3/3 22/2/3
f 30/16/5 54/16/5 53/14/5 22/14/5
f 29/26/2 23/3/2 24/19/2 32/19/2
f 32/19/1 40/19/1 39/23/1 31/23/1
f 44/20/2 26/20/2 28/4/2 41/4/2
f 41/11/6 28/11/6 27/12/6 42/12/6
f 42/12/6 56/12/6 50/12/6 16/12/6
f 27/1/3 28/4/3 26/20/3 25/15/3
f 13/3/2 29/26/2 32/19/2 20/19/2
f 19/18/1 51/18/1 49/7/1 11/7/1
f 20/19/6 32/19/6 31/23/6 18/23/6
f 15/14/5 30/16/5 29/13/5 13/13/5
f 11/7/5 49/7/5 46/14/5 15/14/5
f 43/15/5 25/15/5 26/20/5 44/20/5
f 10/6/1 12/8/1 34/22/1 33/21/1
f 14/4/2 10/6/2 33/21/2 35/20/2
f 38/19/6 37/24/6 39/23/6 40/19/6
f 21/23/3 37/23/3 38/19/3 24/19/3
f 24/19/2 38/19/2 40/19/2 32/19/2
f 31/24/4 39/24/4 37/24/4 21/24/4
f 36/15/5 43/15/5 44/20/5 35/20/5
f 22/2/3 53/2/3 52/23/3 21/23/3
f 14/11/6 41/11/6 42/12/6 16/12/6
f 35/20/2 44/20/2 41/4/2 14/4/2
f 51/18/4 45/24/4 46/9/4 49/7/4
f 55/24/4 52/24/4 53/9/4 54/27/4
f 56/10/4 59/10/4 60/25/4 57/25/4
f 45/24/4 55/24/4 54/27/4 46/9/4
f 48/8/4 50/10/4 58/25/4 47/22/4
f 50/10/4 56/10/4 57/25/4 58/25/4
f 16/12/6 50/12/6 48/8/6 12/8/6
f 31/23/6 55/23/6 45/23/6 18/23/6
f 27/12/6 59/12/6 56/12/6 42/12/6
f 43/15/5 57/15/5 60/15/5 25/15/5
f 15/14/5 46/14/5 54/16/5 30/16/5
f 25/15/3 60/15/3 59/1/3 27/1/3
f 34/22/5 47/22/5 58/25/5 36/25/5
f 21/24/6 52/24/6 55/24/6 31/24/6
f 12/8/1 48/8/1 47/22/1 34/22/1
f 18/24/6 45/24/6 51/18/6 19/18/6
f 61/1/1 63/4/1 64/3/1 62/2/1
f 63/4/4 67/6/4 68/5/4 64/3/4
f 67/6/3 65/8/3 66/7/3 68/5/3
f 65/8/2 61/10/2 62/9/2 66/7/2
f 63/11/6 61/12/6 65/8/6 67/6/6
f 68/5/5 66/7/5 62/14/5 64/13/5
usemtl Material.012
f 69/1/3 71/4/3 72/3/3 70/2/3
f 71/4/2 75/6/2 76/5/2 72/3/2
f 75/6/1 73/8/1 74/7/1 76/5/1
f 73/8/4 69/10/4 70/9/4 74/7/4
f 71/11/6 69/12/6 73/8/6 75/6/6
f 76/5/5 74/7/5 70/14/5 72/13/5
